<svg xmlns="http://www.w3.org/2000/svg" xmlns:xlink="http://www.w3.org/1999/xlink" width="500" zoomAndPan="magnify" viewBox="0 0 375 374.999991" height="500" preserveAspectRatio="xMidYMid meet" version="1.0"><defs><g/><clipPath id="acfe58158f"><path d="M 2.574219 113 L 64 113 L 64 304.820312 L 2.574219 304.820312 Z M 2.574219 113 " clip-rule="nonzero"/></clipPath><clipPath id="1028d1db93"><path d="M 311.28125 113.824219 L 372.324219 113.824219 L 372.324219 304.820312 L 311.28125 304.820312 Z M 311.28125 113.824219 " clip-rule="nonzero"/></clipPath><clipPath id="6c76e78935"><path d="M 158 70.070312 L 217 70.070312 L 217 133 L 158 133 Z M 158 70.070312 " clip-rule="nonzero"/></clipPath></defs><rect x="-37.5" width="450" fill="#ffffff" y="-37.499999" height="449.999989" fill-opacity="1"/><rect x="-37.5" width="450" fill="#ffffff" y="-37.499999" height="449.999989" fill-opacity="1"/><path fill="#c9f31d" d="M 128.671875 177.164062 C 124.136719 177.164062 119.910156 178.023438 115.988281 179.738281 C 112.066406 181.453125 108.664062 183.765625 105.789062 186.675781 C 102.90625 189.585938 100.625 193.003906 98.941406 196.921875 C 97.253906 200.847656 96.410156 205.011719 96.410156 209.421875 C 96.410156 213.835938 97.253906 218.003906 98.941406 221.921875 C 100.625 225.84375 102.90625 229.261719 105.789062 232.171875 C 108.664062 235.082031 112.066406 237.394531 115.988281 239.109375 C 119.910156 240.824219 124.136719 241.683594 128.671875 241.683594 C 133.144531 241.683594 137.34375 240.824219 141.261719 239.109375 C 145.183594 237.394531 148.601562 235.066406 151.511719 232.125 C 154.421875 229.183594 156.71875 225.769531 158.40625 221.878906 C 160.089844 217.988281 160.933594 213.835938 160.933594 209.421875 C 160.933594 205.011719 160.089844 200.863281 158.40625 196.972656 C 156.71875 193.078125 154.421875 189.664062 151.511719 186.722656 C 148.601562 183.78125 145.183594 181.453125 141.261719 179.738281 C 137.34375 178.023438 133.144531 177.164062 128.671875 177.164062 Z M 180.140625 209.421875 C 180.140625 223.761719 175.113281 235.894531 165.066406 245.820312 C 154.894531 255.867188 142.765625 260.890625 128.671875 260.890625 C 114.457031 260.890625 102.324219 255.867188 92.277344 245.820312 C 82.226562 235.773438 77.203125 223.636719 77.203125 209.421875 C 77.203125 195.210938 82.226562 183.078125 92.277344 173.027344 C 102.324219 162.980469 114.457031 157.957031 128.671875 157.957031 C 142.765625 157.957031 154.894531 162.980469 165.066406 173.027344 C 170.09375 178.050781 173.84375 183.597656 176.324219 189.664062 C 178.808594 195.730469 180.078125 202.316406 180.140625 209.421875 " fill-opacity="1" fill-rule="nonzero"/><path fill="#c9f31d" d="M 246.3125 177.164062 C 241.78125 177.164062 237.550781 178.023438 233.632812 179.738281 C 229.707031 181.453125 226.308594 183.765625 223.429688 186.675781 C 220.546875 189.585938 218.265625 193.003906 216.582031 196.921875 C 214.894531 200.847656 214.054688 205.011719 214.054688 209.421875 C 214.054688 213.835938 214.894531 218.003906 216.582031 221.921875 C 218.265625 225.84375 220.546875 229.261719 223.429688 232.171875 C 226.308594 235.082031 229.707031 237.394531 233.632812 239.109375 C 237.550781 240.824219 241.78125 241.683594 246.3125 241.683594 C 250.785156 241.683594 254.980469 240.824219 258.90625 239.109375 C 262.824219 237.394531 266.242188 235.066406 269.152344 232.125 C 272.0625 229.183594 274.363281 225.769531 276.042969 221.878906 C 277.726562 217.988281 278.574219 213.835938 278.574219 209.421875 C 278.574219 205.011719 277.726562 200.863281 276.042969 196.972656 C 274.363281 193.078125 272.0625 189.664062 269.152344 186.722656 C 266.242188 183.78125 262.824219 181.453125 258.90625 179.738281 C 254.980469 178.023438 250.785156 177.164062 246.3125 177.164062 Z M 297.78125 209.421875 C 297.78125 223.761719 292.757812 235.894531 282.710938 245.820312 C 272.539062 255.867188 260.40625 260.890625 246.3125 260.890625 C 232.097656 260.890625 219.964844 255.867188 209.921875 245.820312 C 199.871094 235.773438 194.847656 223.636719 194.847656 209.421875 C 194.847656 195.210938 199.871094 183.078125 209.921875 173.027344 C 219.964844 162.980469 232.097656 157.957031 246.3125 157.957031 C 260.40625 157.957031 272.539062 162.980469 282.710938 173.027344 C 287.730469 178.050781 291.484375 183.597656 293.96875 189.664062 C 296.449219 195.730469 297.71875 202.316406 297.78125 209.421875 " fill-opacity="1" fill-rule="nonzero"/><g clip-path="url(#acfe58158f)"><path fill="#545454" d="M 54.042969 113.929688 C 56.800781 113.929688 59.082031 114.867188 60.890625 116.734375 C 62.695312 118.605469 63.601562 120.886719 63.601562 123.582031 C 63.601562 126.339844 62.695312 128.621094 60.890625 130.429688 C 59.082031 132.238281 56.800781 133.140625 54.042969 133.140625 C 46.445312 133.140625 42.644531 136.941406 42.644531 144.535156 L 42.644531 188.46875 C 42.644531 197.292969 40.625 204.277344 36.578125 209.421875 C 40.625 214.570312 42.644531 221.554688 42.644531 230.378906 L 42.644531 274.308594 C 42.644531 281.90625 46.445312 285.707031 54.042969 285.707031 C 56.800781 285.707031 59.082031 286.609375 60.890625 288.421875 C 62.695312 290.226562 63.601562 292.507812 63.601562 295.265625 C 63.601562 298.023438 62.695312 300.324219 60.890625 302.160156 C 59.082031 303.996094 56.800781 304.917969 54.042969 304.917969 C 33.640625 304.917969 23.4375 294.714844 23.4375 274.308594 L 23.4375 230.378906 C 23.4375 222.78125 19.667969 218.980469 12.132812 218.980469 C 9.375 218.980469 7.09375 218.078125 5.285156 216.269531 C 3.476562 214.464844 2.574219 212.179688 2.574219 209.421875 C 2.574219 206.667969 3.476562 204.382812 5.285156 202.578125 C 7.09375 200.769531 9.375 199.867188 12.132812 199.867188 C 19.667969 199.867188 23.4375 196.066406 23.4375 188.46875 L 23.4375 144.535156 C 23.4375 124.132812 33.640625 113.929688 54.042969 113.929688 " fill-opacity="1" fill-rule="nonzero"/></g><g clip-path="url(#1028d1db93)"><path fill="#545454" d="M 351.550781 144.535156 L 351.550781 188.46875 C 351.550781 196.066406 355.316406 199.867188 362.851562 199.867188 C 365.613281 199.867188 367.890625 200.769531 369.699219 202.578125 C 371.507812 204.382812 372.410156 206.667969 372.410156 209.421875 C 372.410156 212.179688 371.507812 214.464844 369.699219 216.269531 C 367.890625 218.078125 365.613281 218.980469 362.851562 218.980469 C 355.316406 218.980469 351.550781 222.78125 351.550781 230.378906 L 351.550781 274.308594 C 351.550781 294.714844 341.347656 304.917969 320.941406 304.917969 C 318.183594 304.917969 315.902344 303.996094 314.09375 302.160156 C 312.289062 300.324219 311.386719 298.023438 311.386719 295.265625 C 311.386719 292.507812 312.289062 290.226562 314.09375 288.421875 C 315.902344 286.609375 318.183594 285.707031 320.941406 285.707031 C 328.542969 285.707031 332.339844 281.90625 332.339844 274.308594 L 332.339844 230.378906 C 332.339844 221.554688 334.363281 214.570312 338.40625 209.421875 C 334.363281 204.277344 332.339844 197.292969 332.339844 188.46875 L 332.339844 144.535156 C 332.339844 136.941406 328.542969 133.140625 320.941406 133.140625 C 318.183594 133.140625 315.902344 132.238281 314.09375 130.429688 C 312.289062 128.621094 311.386719 126.339844 311.386719 123.582031 C 311.386719 120.886719 312.289062 118.605469 314.09375 116.734375 C 315.902344 114.867188 318.183594 113.929688 320.941406 113.929688 C 341.347656 113.929688 351.550781 124.132812 351.550781 144.535156 " fill-opacity="1" fill-rule="nonzero"/></g><g clip-path="url(#6c76e78935)"><path fill="#545454" d="M 216.261719 121.550781 C 216.261719 123.144531 215.953125 124.628906 215.339844 126.007812 C 214.726562 127.386719 213.917969 128.597656 212.90625 129.640625 C 211.894531 130.679688 210.683594 131.492188 209.273438 132.074219 C 207.863281 132.660156 206.394531 132.949219 204.863281 132.949219 C 202.042969 132.949219 199.625 131.96875 197.601562 130.007812 C 195.578125 128.046875 193.925781 125.640625 192.640625 122.792969 C 191.351562 119.941406 190.417969 117 189.835938 113.96875 C 189.253906 110.9375 188.964844 108.101562 188.964844 105.46875 C 188.964844 94.621094 193.589844 83.65625 202.839844 72.5625 C 204.496094 70.910156 206.363281 70.082031 208.449219 70.082031 C 210.589844 70.082031 212.429688 70.847656 213.960938 72.382812 C 215.492188 73.914062 216.261719 75.75 216.261719 77.894531 C 216.261719 78.9375 216.042969 80.007812 215.617188 81.113281 C 212.859375 87.851562 211.480469 94.253906 211.480469 100.320312 C 211.480469 106.082031 212.734375 111.65625 215.25 117.046875 C 215.921875 118.582031 216.261719 120.082031 216.261719 121.550781 Z M 186.023438 121.550781 C 186.023438 123.144531 185.714844 124.628906 185.105469 126.007812 C 184.488281 127.386719 183.679688 128.597656 182.667969 129.640625 C 181.65625 130.679688 180.445312 131.492188 179.039062 132.074219 C 177.628906 132.660156 176.15625 132.949219 174.625 132.949219 C 171.804688 132.949219 169.386719 131.96875 167.367188 130.007812 C 165.34375 128.046875 163.6875 125.640625 162.402344 122.792969 C 161.113281 119.941406 160.179688 117 159.597656 113.96875 C 159.015625 110.9375 158.726562 108.101562 158.726562 105.46875 C 158.726562 94.621094 163.351562 83.65625 172.601562 72.5625 C 174.257812 70.910156 176.125 70.082031 178.210938 70.082031 C 180.355469 70.082031 182.191406 70.847656 183.722656 72.382812 C 185.257812 73.914062 186.023438 75.75 186.023438 77.894531 C 186.023438 78.9375 185.808594 80.007812 185.378906 81.113281 C 182.621094 87.851562 181.242188 94.253906 181.242188 100.320312 C 181.242188 106.082031 182.5 111.65625 185.011719 117.046875 C 185.683594 118.582031 186.023438 120.082031 186.023438 121.550781 " fill-opacity="1" fill-rule="nonzero"/></g><g fill="#ffffff" fill-opacity="1"><g transform="translate(146.047016, 319.827752)"><g><path d="M -0.09375 3.015625 C -0.582031 3.015625 -0.96875 2.941406 -1.25 2.796875 L -1.25 1.671875 C -0.882812 1.773438 -0.5 1.828125 -0.09375 1.828125 C 0.425781 1.828125 0.816406 1.671875 1.078125 1.359375 C 1.347656 1.046875 1.484375 0.59375 1.484375 0 L 1.484375 -11.421875 L 2.8125 -11.421875 L 2.8125 -0.109375 C 2.8125 0.878906 2.5625 1.644531 2.0625 2.1875 C 1.5625 2.738281 0.84375 3.015625 -0.09375 3.015625 Z M -0.09375 3.015625 "/></g></g></g><g fill="#ffffff" fill-opacity="1"><g transform="translate(150.319416, 319.827752)"><g><path d="M 8.765625 -4.296875 C 8.765625 -2.898438 8.410156 -1.804688 7.703125 -1.015625 C 7.003906 -0.234375 6.035156 0.15625 4.796875 0.15625 C 4.035156 0.15625 3.359375 -0.0195312 2.765625 -0.375 C 2.171875 -0.738281 1.710938 -1.253906 1.390625 -1.921875 C 1.066406 -2.597656 0.90625 -3.390625 0.90625 -4.296875 C 0.90625 -5.691406 1.253906 -6.773438 1.953125 -7.546875 C 2.648438 -8.328125 3.617188 -8.71875 4.859375 -8.71875 C 6.054688 -8.71875 7.003906 -8.316406 7.703125 -7.515625 C 8.410156 -6.722656 8.765625 -5.648438 8.765625 -4.296875 Z M 2.25 -4.296875 C 2.25 -3.203125 2.46875 -2.367188 2.90625 -1.796875 C 3.34375 -1.222656 3.984375 -0.9375 4.828125 -0.9375 C 5.679688 -0.9375 6.328125 -1.21875 6.765625 -1.78125 C 7.203125 -2.351562 7.421875 -3.191406 7.421875 -4.296875 C 7.421875 -5.378906 7.203125 -6.203125 6.765625 -6.765625 C 6.328125 -7.335938 5.675781 -7.625 4.8125 -7.625 C 3.96875 -7.625 3.328125 -7.34375 2.890625 -6.78125 C 2.460938 -6.226562 2.25 -5.398438 2.25 -4.296875 Z M 2.25 -4.296875 "/></g></g></g><g fill="#ffffff" fill-opacity="1"><g transform="translate(159.981124, 319.827752)"><g><path d="M 5 0.15625 C 3.726562 0.15625 2.726562 -0.226562 2 -1 C 1.269531 -1.769531 0.90625 -2.84375 0.90625 -4.21875 C 0.90625 -5.59375 1.242188 -6.6875 1.921875 -7.5 C 2.597656 -8.3125 3.507812 -8.71875 4.65625 -8.71875 C 5.726562 -8.71875 6.578125 -8.363281 7.203125 -7.65625 C 7.828125 -6.957031 8.140625 -6.03125 8.140625 -4.875 L 8.140625 -4.046875 L 2.25 -4.046875 C 2.269531 -3.046875 2.519531 -2.285156 3 -1.765625 C 3.488281 -1.242188 4.171875 -0.984375 5.046875 -0.984375 C 5.960938 -0.984375 6.875 -1.175781 7.78125 -1.5625 L 7.78125 -0.40625 C 7.320312 -0.207031 6.882812 -0.0664062 6.46875 0.015625 C 6.0625 0.109375 5.570312 0.15625 5 0.15625 Z M 4.640625 -7.640625 C 3.953125 -7.640625 3.40625 -7.414062 3 -6.96875 C 2.59375 -6.519531 2.351562 -5.898438 2.28125 -5.109375 L 6.75 -5.109375 C 6.75 -5.921875 6.566406 -6.546875 6.203125 -6.984375 C 5.835938 -7.421875 5.316406 -7.640625 4.640625 -7.640625 Z M 4.640625 -7.640625 "/></g></g></g><g fill="#ffffff" fill-opacity="1"><g transform="translate(168.9555, 319.827752)"><g><path d="M 2.671875 0 L 1.375 0 L 1.375 -12.15625 L 2.671875 -12.15625 Z M 2.671875 0 "/></g></g></g><g fill="#ffffff" fill-opacity="1"><g transform="translate(177.156622, 319.827752)"><g><path d="M 8.8125 -8.09375 C 8.8125 -6.9375 8.414062 -6.046875 7.625 -5.421875 C 6.84375 -4.804688 5.71875 -4.5 4.25 -4.5 L 2.90625 -4.5 L 2.90625 0 L 1.578125 0 L 1.578125 -11.421875 L 4.53125 -11.421875 C 7.382812 -11.421875 8.8125 -10.3125 8.8125 -8.09375 Z M 2.90625 -5.640625 L 4.09375 -5.640625 C 5.269531 -5.640625 6.117188 -5.828125 6.640625 -6.203125 C 7.171875 -6.585938 7.4375 -7.195312 7.4375 -8.03125 C 7.4375 -8.789062 7.1875 -9.351562 6.6875 -9.71875 C 6.195312 -10.09375 5.429688 -10.28125 4.390625 -10.28125 L 2.90625 -10.28125 Z M 2.90625 -5.640625 "/></g></g></g><g fill="#ffffff" fill-opacity="1"><g transform="translate(186.787087, 319.827752)"><g><path d="M 6.640625 0 L 6.390625 -1.21875 L 6.328125 -1.21875 C 5.898438 -0.6875 5.472656 -0.320312 5.046875 -0.125 C 4.617188 0.0625 4.085938 0.15625 3.453125 0.15625 C 2.609375 0.15625 1.941406 -0.0625 1.453125 -0.5 C 0.972656 -0.9375 0.734375 -1.5625 0.734375 -2.375 C 0.734375 -4.101562 2.117188 -5.007812 4.890625 -5.09375 L 6.34375 -5.140625 L 6.34375 -5.671875 C 6.34375 -6.335938 6.195312 -6.832031 5.90625 -7.15625 C 5.613281 -7.476562 5.148438 -7.640625 4.515625 -7.640625 C 3.804688 -7.640625 3 -7.421875 2.09375 -6.984375 L 1.703125 -7.96875 C 2.117188 -8.195312 2.578125 -8.375 3.078125 -8.5 C 3.585938 -8.632812 4.09375 -8.703125 4.59375 -8.703125 C 5.613281 -8.703125 6.367188 -8.472656 6.859375 -8.015625 C 7.359375 -7.566406 7.609375 -6.84375 7.609375 -5.84375 L 7.609375 0 Z M 3.71875 -0.921875 C 4.519531 -0.921875 5.148438 -1.140625 5.609375 -1.578125 C 6.078125 -2.023438 6.3125 -2.644531 6.3125 -3.4375 L 6.3125 -4.21875 L 5.015625 -4.15625 C 3.984375 -4.125 3.238281 -3.960938 2.78125 -3.671875 C 2.320312 -3.390625 2.09375 -2.953125 2.09375 -2.359375 C 2.09375 -1.890625 2.234375 -1.53125 2.515625 -1.28125 C 2.804688 -1.039062 3.207031 -0.921875 3.71875 -0.921875 Z M 3.71875 -0.921875 "/></g></g></g><g fill="#ffffff" fill-opacity="1"><g transform="translate(195.683358, 319.827752)"><g><path d="M 2.671875 0 L 1.375 0 L 1.375 -12.15625 L 2.671875 -12.15625 Z M 2.671875 0 "/></g></g></g><g fill="#ffffff" fill-opacity="1"><g transform="translate(199.729244, 319.827752)"><g><path d="M 2.671875 0 L 1.375 0 L 1.375 -12.15625 L 2.671875 -12.15625 Z M 2.671875 0 "/></g></g></g><g fill="#ffffff" fill-opacity="1"><g transform="translate(203.775131, 319.827752)"><g><path d="M 5 0.15625 C 3.726562 0.15625 2.726562 -0.226562 2 -1 C 1.269531 -1.769531 0.90625 -2.84375 0.90625 -4.21875 C 0.90625 -5.59375 1.242188 -6.6875 1.921875 -7.5 C 2.597656 -8.3125 3.507812 -8.71875 4.65625 -8.71875 C 5.726562 -8.71875 6.578125 -8.363281 7.203125 -7.65625 C 7.828125 -6.957031 8.140625 -6.03125 8.140625 -4.875 L 8.140625 -4.046875 L 2.25 -4.046875 C 2.269531 -3.046875 2.519531 -2.285156 3 -1.765625 C 3.488281 -1.242188 4.171875 -0.984375 5.046875 -0.984375 C 5.960938 -0.984375 6.875 -1.175781 7.78125 -1.5625 L 7.78125 -0.40625 C 7.320312 -0.207031 6.882812 -0.0664062 6.46875 0.015625 C 6.0625 0.109375 5.570312 0.15625 5 0.15625 Z M 4.640625 -7.640625 C 3.953125 -7.640625 3.40625 -7.414062 3 -6.96875 C 2.59375 -6.519531 2.351562 -5.898438 2.28125 -5.109375 L 6.75 -5.109375 C 6.75 -5.921875 6.566406 -6.546875 6.203125 -6.984375 C 5.835938 -7.421875 5.316406 -7.640625 4.640625 -7.640625 Z M 4.640625 -7.640625 "/></g></g></g><g fill="#ffffff" fill-opacity="1"><g transform="translate(212.749507, 319.827752)"><g><path d="M 5.28125 -8.71875 C 5.664062 -8.71875 6.007812 -8.6875 6.3125 -8.625 L 6.125 -7.421875 C 5.769531 -7.503906 5.457031 -7.546875 5.1875 -7.546875 C 4.5 -7.546875 3.90625 -7.265625 3.40625 -6.703125 C 2.914062 -6.140625 2.671875 -5.4375 2.671875 -4.59375 L 2.671875 0 L 1.375 0 L 1.375 -8.5625 L 2.453125 -8.5625 L 2.59375 -6.984375 L 2.65625 -6.984375 C 2.976562 -7.535156 3.363281 -7.960938 3.8125 -8.265625 C 4.257812 -8.566406 4.75 -8.71875 5.28125 -8.71875 Z M 5.28125 -8.71875 "/></g></g></g><g fill="#ffffff" fill-opacity="1"><g transform="translate(219.279162, 319.827752)"><g><path d="M 8.765625 -4.296875 C 8.765625 -2.898438 8.410156 -1.804688 7.703125 -1.015625 C 7.003906 -0.234375 6.035156 0.15625 4.796875 0.15625 C 4.035156 0.15625 3.359375 -0.0195312 2.765625 -0.375 C 2.171875 -0.738281 1.710938 -1.253906 1.390625 -1.921875 C 1.066406 -2.597656 0.90625 -3.390625 0.90625 -4.296875 C 0.90625 -5.691406 1.253906 -6.773438 1.953125 -7.546875 C 2.648438 -8.328125 3.617188 -8.71875 4.859375 -8.71875 C 6.054688 -8.71875 7.003906 -8.316406 7.703125 -7.515625 C 8.410156 -6.722656 8.765625 -5.648438 8.765625 -4.296875 Z M 2.25 -4.296875 C 2.25 -3.203125 2.46875 -2.367188 2.90625 -1.796875 C 3.34375 -1.222656 3.984375 -0.9375 4.828125 -0.9375 C 5.679688 -0.9375 6.328125 -1.21875 6.765625 -1.78125 C 7.203125 -2.351562 7.421875 -3.191406 7.421875 -4.296875 C 7.421875 -5.378906 7.203125 -6.203125 6.765625 -6.765625 C 6.328125 -7.335938 5.675781 -7.625 4.8125 -7.625 C 3.96875 -7.625 3.328125 -7.34375 2.890625 -6.78125 C 2.460938 -6.226562 2.25 -5.398438 2.25 -4.296875 Z M 2.25 -4.296875 "/></g></g></g></svg>