<svg xmlns="http://www.w3.org/2000/svg" xmlns:xlink="http://www.w3.org/1999/xlink" width="500" zoomAndPan="magnify" viewBox="0 0 375 374.999991" height="500" preserveAspectRatio="xMidYMid meet" version="1.0"><defs><g/></defs><rect x="-37.5" width="450" fill="#ffffff" y="-37.499999" height="449.999989" fill-opacity="1"/><rect x="-37.5" width="450" fill="#000000" y="-37.499999" height="449.999989" fill-opacity="1"/><path fill="#c9f31d" d="M 94.039062 189.148438 C 86.832031 189.148438 80.113281 190.511719 73.886719 193.238281 C 67.652344 195.960938 62.25 199.640625 57.675781 204.261719 C 53.101562 208.886719 49.472656 214.316406 46.796875 220.542969 C 44.121094 226.773438 42.78125 233.394531 42.78125 240.402344 C 42.78125 247.410156 44.121094 254.03125 46.796875 260.261719 C 49.472656 266.492188 53.101562 271.921875 57.675781 276.542969 C 62.25 281.167969 67.652344 284.84375 73.886719 287.570312 C 80.113281 290.296875 86.832031 291.65625 94.039062 291.65625 C 101.144531 291.65625 107.8125 290.296875 114.042969 287.570312 C 120.273438 284.84375 125.699219 281.144531 130.324219 276.472656 C 134.949219 271.796875 138.597656 266.371094 141.277344 260.1875 C 143.953125 254.007812 145.292969 247.410156 145.292969 240.402344 C 145.292969 233.394531 143.953125 226.800781 141.277344 220.617188 C 138.597656 214.433594 134.949219 209.007812 130.324219 204.335938 C 125.699219 199.660156 120.273438 195.960938 114.042969 193.238281 C 107.8125 190.511719 101.144531 189.148438 94.039062 189.148438 Z M 175.808594 240.402344 C 175.808594 263.183594 167.824219 282.457031 151.863281 298.226562 C 135.699219 314.195312 116.425781 322.175781 94.039062 322.175781 C 71.449219 322.175781 52.175781 314.195312 36.210938 298.226562 C 20.246094 282.265625 12.261719 262.988281 12.261719 240.402344 C 12.261719 217.820312 20.246094 198.542969 36.210938 182.578125 C 52.175781 166.613281 71.449219 158.628906 94.039062 158.628906 C 116.425781 158.628906 135.699219 166.613281 151.863281 182.578125 C 159.847656 190.558594 165.808594 199.371094 169.75 209.007812 C 173.695312 218.644531 175.710938 229.109375 175.808594 240.402344 " fill-opacity="1" fill-rule="nonzero"/><path fill="#c9f31d" d="M 280.945312 189.148438 C 273.746094 189.148438 267.027344 190.511719 260.796875 193.238281 C 254.566406 195.960938 249.160156 199.640625 244.589844 204.261719 C 240.011719 208.886719 236.386719 214.316406 233.710938 220.542969 C 231.03125 226.773438 229.695312 233.394531 229.695312 240.402344 C 229.695312 247.410156 231.03125 254.03125 233.710938 260.261719 C 236.386719 266.492188 240.011719 271.921875 244.589844 276.542969 C 249.160156 281.167969 254.566406 284.84375 260.796875 287.570312 C 267.027344 290.296875 273.746094 291.65625 280.945312 291.65625 C 288.050781 291.65625 294.71875 290.296875 300.957031 287.570312 C 307.183594 284.84375 312.613281 281.144531 317.234375 276.472656 C 321.859375 271.796875 325.511719 266.371094 328.183594 260.1875 C 330.859375 254.007812 332.203125 247.410156 332.203125 240.402344 C 332.203125 233.394531 330.859375 226.800781 328.183594 220.617188 C 325.511719 214.433594 321.859375 209.007812 317.234375 204.335938 C 312.613281 199.660156 307.183594 195.960938 300.957031 193.238281 C 294.71875 190.511719 288.050781 189.148438 280.945312 189.148438 Z M 362.722656 240.402344 C 362.722656 263.183594 354.738281 282.457031 338.773438 298.226562 C 322.613281 314.195312 303.335938 322.175781 280.945312 322.175781 C 258.359375 322.175781 239.085938 314.195312 223.125 298.226562 C 207.15625 282.265625 199.175781 262.988281 199.175781 240.402344 C 199.175781 217.820312 207.15625 198.542969 223.125 182.578125 C 239.085938 166.613281 258.359375 158.628906 280.945312 158.628906 C 303.335938 158.628906 322.613281 166.613281 338.773438 182.578125 C 346.753906 190.558594 352.71875 199.371094 356.664062 209.007812 C 360.605469 218.644531 362.621094 229.109375 362.722656 240.402344 " fill-opacity="1" fill-rule="nonzero"/><path fill="#ffffff" d="M 233.199219 100.789062 C 233.199219 103.324219 232.707031 105.679688 231.738281 107.871094 C 230.761719 110.0625 229.476562 111.988281 227.871094 113.640625 C 226.265625 115.296875 224.335938 116.585938 222.101562 117.511719 C 219.855469 118.4375 217.523438 118.894531 215.089844 118.894531 C 210.609375 118.894531 206.769531 117.339844 203.554688 114.222656 C 200.339844 111.109375 197.714844 107.289062 195.667969 102.761719 C 193.625 98.234375 192.140625 93.5625 191.214844 88.742188 C 190.289062 83.925781 189.828125 79.421875 189.828125 75.234375 C 189.828125 58.003906 197.175781 40.582031 211.875 22.957031 C 214.503906 20.328125 217.476562 19.015625 220.789062 19.015625 C 224.1875 19.015625 227.113281 20.234375 229.546875 22.667969 C 231.976562 25.101562 233.199219 28.023438 233.199219 31.429688 C 233.199219 33.085938 232.855469 34.785156 232.179688 36.539062 C 227.792969 47.25 225.605469 57.421875 225.605469 67.058594 C 225.605469 76.210938 227.597656 85.070312 231.589844 93.636719 C 232.664062 96.070312 233.199219 98.453125 233.199219 100.789062 Z M 185.15625 100.789062 C 185.15625 103.324219 184.667969 105.679688 183.699219 107.871094 C 182.71875 110.0625 181.429688 111.988281 179.824219 113.640625 C 178.222656 115.296875 176.296875 116.585938 174.058594 117.511719 C 171.816406 118.4375 169.480469 118.894531 167.050781 118.894531 C 162.570312 118.894531 158.726562 117.339844 155.511719 114.222656 C 152.300781 111.109375 149.671875 107.289062 147.628906 102.761719 C 145.582031 98.234375 144.097656 93.5625 143.171875 88.742188 C 142.25 83.925781 141.789062 79.421875 141.789062 75.234375 C 141.789062 58.003906 149.136719 40.582031 163.835938 22.957031 C 166.464844 20.328125 169.433594 19.015625 172.742188 19.015625 C 176.148438 19.015625 179.070312 20.234375 181.503906 22.667969 C 183.9375 25.101562 185.15625 28.023438 185.15625 31.429688 C 185.15625 33.085938 184.816406 34.785156 184.132812 36.539062 C 179.753906 47.25 177.5625 57.421875 177.5625 67.058594 C 177.5625 76.210938 179.558594 85.070312 183.550781 93.636719 C 184.617188 96.070312 185.15625 98.453125 185.15625 100.789062 " fill-opacity="1" fill-rule="nonzero"/><g fill="#000000" fill-opacity="1"><g transform="translate(146.047016, 319.827752)"><g><path d="M -0.09375 3.015625 C -0.582031 3.015625 -0.96875 2.941406 -1.25 2.796875 L -1.25 1.671875 C -0.882812 1.773438 -0.5 1.828125 -0.09375 1.828125 C 0.425781 1.828125 0.816406 1.671875 1.078125 1.359375 C 1.347656 1.046875 1.484375 0.59375 1.484375 0 L 1.484375 -11.421875 L 2.8125 -11.421875 L 2.8125 -0.109375 C 2.8125 0.878906 2.5625 1.644531 2.0625 2.1875 C 1.5625 2.738281 0.84375 3.015625 -0.09375 3.015625 Z M -0.09375 3.015625 "/></g></g></g><g fill="#000000" fill-opacity="1"><g transform="translate(150.319416, 319.827752)"><g><path d="M 8.765625 -4.296875 C 8.765625 -2.898438 8.410156 -1.804688 7.703125 -1.015625 C 7.003906 -0.234375 6.035156 0.15625 4.796875 0.15625 C 4.035156 0.15625 3.359375 -0.0195312 2.765625 -0.375 C 2.171875 -0.738281 1.710938 -1.253906 1.390625 -1.921875 C 1.066406 -2.597656 0.90625 -3.390625 0.90625 -4.296875 C 0.90625 -5.691406 1.253906 -6.773438 1.953125 -7.546875 C 2.648438 -8.328125 3.617188 -8.71875 4.859375 -8.71875 C 6.054688 -8.71875 7.003906 -8.316406 7.703125 -7.515625 C 8.410156 -6.722656 8.765625 -5.648438 8.765625 -4.296875 Z M 2.25 -4.296875 C 2.25 -3.203125 2.46875 -2.367188 2.90625 -1.796875 C 3.34375 -1.222656 3.984375 -0.9375 4.828125 -0.9375 C 5.679688 -0.9375 6.328125 -1.21875 6.765625 -1.78125 C 7.203125 -2.351562 7.421875 -3.191406 7.421875 -4.296875 C 7.421875 -5.378906 7.203125 -6.203125 6.765625 -6.765625 C 6.328125 -7.335938 5.675781 -7.625 4.8125 -7.625 C 3.96875 -7.625 3.328125 -7.34375 2.890625 -6.78125 C 2.460938 -6.226562 2.25 -5.398438 2.25 -4.296875 Z M 2.25 -4.296875 "/></g></g></g><g fill="#000000" fill-opacity="1"><g transform="translate(159.981124, 319.827752)"><g><path d="M 5 0.15625 C 3.726562 0.15625 2.726562 -0.226562 2 -1 C 1.269531 -1.769531 0.90625 -2.84375 0.90625 -4.21875 C 0.90625 -5.59375 1.242188 -6.6875 1.921875 -7.5 C 2.597656 -8.3125 3.507812 -8.71875 4.65625 -8.71875 C 5.726562 -8.71875 6.578125 -8.363281 7.203125 -7.65625 C 7.828125 -6.957031 8.140625 -6.03125 8.140625 -4.875 L 8.140625 -4.046875 L 2.25 -4.046875 C 2.269531 -3.046875 2.519531 -2.285156 3 -1.765625 C 3.488281 -1.242188 4.171875 -0.984375 5.046875 -0.984375 C 5.960938 -0.984375 6.875 -1.175781 7.78125 -1.5625 L 7.78125 -0.40625 C 7.320312 -0.207031 6.882812 -0.0664062 6.46875 0.015625 C 6.0625 0.109375 5.570312 0.15625 5 0.15625 Z M 4.640625 -7.640625 C 3.953125 -7.640625 3.40625 -7.414062 3 -6.96875 C 2.59375 -6.519531 2.351562 -5.898438 2.28125 -5.109375 L 6.75 -5.109375 C 6.75 -5.921875 6.566406 -6.546875 6.203125 -6.984375 C 5.835938 -7.421875 5.316406 -7.640625 4.640625 -7.640625 Z M 4.640625 -7.640625 "/></g></g></g><g fill="#000000" fill-opacity="1"><g transform="translate(168.9555, 319.827752)"><g><path d="M 2.671875 0 L 1.375 0 L 1.375 -12.15625 L 2.671875 -12.15625 Z M 2.671875 0 "/></g></g></g><g fill="#000000" fill-opacity="1"><g transform="translate(177.156622, 319.827752)"><g><path d="M 8.8125 -8.09375 C 8.8125 -6.9375 8.414062 -6.046875 7.625 -5.421875 C 6.84375 -4.804688 5.71875 -4.5 4.25 -4.5 L 2.90625 -4.5 L 2.90625 0 L 1.578125 0 L 1.578125 -11.421875 L 4.53125 -11.421875 C 7.382812 -11.421875 8.8125 -10.3125 8.8125 -8.09375 Z M 2.90625 -5.640625 L 4.09375 -5.640625 C 5.269531 -5.640625 6.117188 -5.828125 6.640625 -6.203125 C 7.171875 -6.585938 7.4375 -7.195312 7.4375 -8.03125 C 7.4375 -8.789062 7.1875 -9.351562 6.6875 -9.71875 C 6.195312 -10.09375 5.429688 -10.28125 4.390625 -10.28125 L 2.90625 -10.28125 Z M 2.90625 -5.640625 "/></g></g></g><g fill="#000000" fill-opacity="1"><g transform="translate(186.787087, 319.827752)"><g><path d="M 6.640625 0 L 6.390625 -1.21875 L 6.328125 -1.21875 C 5.898438 -0.6875 5.472656 -0.320312 5.046875 -0.125 C 4.617188 0.0625 4.085938 0.15625 3.453125 0.15625 C 2.609375 0.15625 1.941406 -0.0625 1.453125 -0.5 C 0.972656 -0.9375 0.734375 -1.5625 0.734375 -2.375 C 0.734375 -4.101562 2.117188 -5.007812 4.890625 -5.09375 L 6.34375 -5.140625 L 6.34375 -5.671875 C 6.34375 -6.335938 6.195312 -6.832031 5.90625 -7.15625 C 5.613281 -7.476562 5.148438 -7.640625 4.515625 -7.640625 C 3.804688 -7.640625 3 -7.421875 2.09375 -6.984375 L 1.703125 -7.96875 C 2.117188 -8.195312 2.578125 -8.375 3.078125 -8.5 C 3.585938 -8.632812 4.09375 -8.703125 4.59375 -8.703125 C 5.613281 -8.703125 6.367188 -8.472656 6.859375 -8.015625 C 7.359375 -7.566406 7.609375 -6.84375 7.609375 -5.84375 L 7.609375 0 Z M 3.71875 -0.921875 C 4.519531 -0.921875 5.148438 -1.140625 5.609375 -1.578125 C 6.078125 -2.023438 6.3125 -2.644531 6.3125 -3.4375 L 6.3125 -4.21875 L 5.015625 -4.15625 C 3.984375 -4.125 3.238281 -3.960938 2.78125 -3.671875 C 2.320312 -3.390625 2.09375 -2.953125 2.09375 -2.359375 C 2.09375 -1.890625 2.234375 -1.53125 2.515625 -1.28125 C 2.804688 -1.039062 3.207031 -0.921875 3.71875 -0.921875 Z M 3.71875 -0.921875 "/></g></g></g><g fill="#000000" fill-opacity="1"><g transform="translate(195.683358, 319.827752)"><g><path d="M 2.671875 0 L 1.375 0 L 1.375 -12.15625 L 2.671875 -12.15625 Z M 2.671875 0 "/></g></g></g><g fill="#000000" fill-opacity="1"><g transform="translate(199.729244, 319.827752)"><g><path d="M 2.671875 0 L 1.375 0 L 1.375 -12.15625 L 2.671875 -12.15625 Z M 2.671875 0 "/></g></g></g><g fill="#000000" fill-opacity="1"><g transform="translate(203.775131, 319.827752)"><g><path d="M 5 0.15625 C 3.726562 0.15625 2.726562 -0.226562 2 -1 C 1.269531 -1.769531 0.90625 -2.84375 0.90625 -4.21875 C 0.90625 -5.59375 1.242188 -6.6875 1.921875 -7.5 C 2.597656 -8.3125 3.507812 -8.71875 4.65625 -8.71875 C 5.726562 -8.71875 6.578125 -8.363281 7.203125 -7.65625 C 7.828125 -6.957031 8.140625 -6.03125 8.140625 -4.875 L 8.140625 -4.046875 L 2.25 -4.046875 C 2.269531 -3.046875 2.519531 -2.285156 3 -1.765625 C 3.488281 -1.242188 4.171875 -0.984375 5.046875 -0.984375 C 5.960938 -0.984375 6.875 -1.175781 7.78125 -1.5625 L 7.78125 -0.40625 C 7.320312 -0.207031 6.882812 -0.0664062 6.46875 0.015625 C 6.0625 0.109375 5.570312 0.15625 5 0.15625 Z M 4.640625 -7.640625 C 3.953125 -7.640625 3.40625 -7.414062 3 -6.96875 C 2.59375 -6.519531 2.351562 -5.898438 2.28125 -5.109375 L 6.75 -5.109375 C 6.75 -5.921875 6.566406 -6.546875 6.203125 -6.984375 C 5.835938 -7.421875 5.316406 -7.640625 4.640625 -7.640625 Z M 4.640625 -7.640625 "/></g></g></g><g fill="#000000" fill-opacity="1"><g transform="translate(212.749507, 319.827752)"><g><path d="M 5.28125 -8.71875 C 5.664062 -8.71875 6.007812 -8.6875 6.3125 -8.625 L 6.125 -7.421875 C 5.769531 -7.503906 5.457031 -7.546875 5.1875 -7.546875 C 4.5 -7.546875 3.90625 -7.265625 3.40625 -6.703125 C 2.914062 -6.140625 2.671875 -5.4375 2.671875 -4.59375 L 2.671875 0 L 1.375 0 L 1.375 -8.5625 L 2.453125 -8.5625 L 2.59375 -6.984375 L 2.65625 -6.984375 C 2.976562 -7.535156 3.363281 -7.960938 3.8125 -8.265625 C 4.257812 -8.566406 4.75 -8.71875 5.28125 -8.71875 Z M 5.28125 -8.71875 "/></g></g></g><g fill="#000000" fill-opacity="1"><g transform="translate(219.279162, 319.827752)"><g><path d="M 8.765625 -4.296875 C 8.765625 -2.898438 8.410156 -1.804688 7.703125 -1.015625 C 7.003906 -0.234375 6.035156 0.15625 4.796875 0.15625 C 4.035156 0.15625 3.359375 -0.0195312 2.765625 -0.375 C 2.171875 -0.738281 1.710938 -1.253906 1.390625 -1.921875 C 1.066406 -2.597656 0.90625 -3.390625 0.90625 -4.296875 C 0.90625 -5.691406 1.253906 -6.773438 1.953125 -7.546875 C 2.648438 -8.328125 3.617188 -8.71875 4.859375 -8.71875 C 6.054688 -8.71875 7.003906 -8.316406 7.703125 -7.515625 C 8.410156 -6.722656 8.765625 -5.648438 8.765625 -4.296875 Z M 2.25 -4.296875 C 2.25 -3.203125 2.46875 -2.367188 2.90625 -1.796875 C 3.34375 -1.222656 3.984375 -0.9375 4.828125 -0.9375 C 5.679688 -0.9375 6.328125 -1.21875 6.765625 -1.78125 C 7.203125 -2.351562 7.421875 -3.191406 7.421875 -4.296875 C 7.421875 -5.378906 7.203125 -6.203125 6.765625 -6.765625 C 6.328125 -7.335938 5.675781 -7.625 4.8125 -7.625 C 3.96875 -7.625 3.328125 -7.34375 2.890625 -6.78125 C 2.460938 -6.226562 2.25 -5.398438 2.25 -4.296875 Z M 2.25 -4.296875 "/></g></g></g></svg>