<svg xmlns="http://www.w3.org/2000/svg" xmlns:xlink="http://www.w3.org/1999/xlink" width="500" zoomAndPan="magnify" viewBox="0 0 375 112.499997" height="150" preserveAspectRatio="xMidYMid meet" version="1.0"><defs><g/><clipPath id="b4751d3734"><path d="M 2.324219 22 L 31 22 L 31 110.226562 L 2.324219 110.226562 Z M 2.324219 22 " clip-rule="nonzero"/></clipPath><clipPath id="1b4528cbee"><path d="M 144.394531 22.089844 L 172.527344 22.089844 L 172.527344 110.035156 L 144.394531 110.035156 Z M 144.394531 22.089844 " clip-rule="nonzero"/></clipPath><clipPath id="eb18ded459"><path d="M 74 1.957031 L 101 1.957031 L 101 31 L 74 31 Z M 74 1.957031 " clip-rule="nonzero"/></clipPath></defs><path fill="#c9f31d" d="M 60.355469 51.242188 C 58.269531 51.242188 56.324219 51.636719 54.519531 52.425781 C 52.710938 53.214844 51.148438 54.28125 49.824219 55.617188 C 48.496094 56.957031 47.445312 58.53125 46.671875 60.335938 C 45.898438 62.140625 45.507812 64.058594 45.507812 66.085938 C 45.507812 68.117188 45.898438 70.035156 46.671875 71.839844 C 47.445312 73.644531 48.496094 75.21875 49.824219 76.554688 C 51.148438 77.894531 52.710938 78.960938 54.519531 79.75 C 56.324219 80.539062 58.269531 80.933594 60.355469 80.933594 C 62.414062 80.933594 64.34375 80.539062 66.148438 79.75 C 67.953125 78.960938 69.527344 77.886719 70.867188 76.535156 C 72.207031 75.179688 73.261719 73.609375 74.039062 71.820312 C 74.8125 70.027344 75.203125 68.117188 75.203125 66.085938 C 75.203125 64.058594 74.8125 62.148438 74.039062 60.355469 C 73.261719 58.566406 72.207031 56.992188 70.867188 55.640625 C 69.527344 54.285156 67.953125 53.214844 66.148438 52.425781 C 64.34375 51.636719 62.414062 51.242188 60.355469 51.242188 Z M 84.042969 66.085938 C 84.042969 72.6875 81.730469 78.269531 77.105469 82.835938 C 72.421875 87.460938 66.839844 89.773438 60.355469 89.773438 C 53.8125 89.773438 48.230469 87.460938 43.605469 82.835938 C 38.980469 78.214844 36.667969 72.628906 36.667969 66.085938 C 36.667969 59.546875 38.980469 53.960938 43.605469 49.335938 C 48.230469 44.714844 53.8125 42.402344 60.355469 42.402344 C 66.839844 42.402344 72.421875 44.714844 77.105469 49.335938 C 79.417969 51.648438 81.144531 54.203125 82.285156 56.992188 C 83.429688 59.785156 84.011719 62.816406 84.042969 66.085938 " fill-opacity="1" fill-rule="nonzero"/><path fill="#c9f31d" d="M 114.496094 51.242188 C 112.410156 51.242188 110.464844 51.636719 108.660156 52.425781 C 106.855469 53.214844 105.289062 54.28125 103.964844 55.617188 C 102.636719 56.957031 101.589844 58.53125 100.8125 60.335938 C 100.035156 62.140625 99.648438 64.058594 99.648438 66.085938 C 99.648438 68.117188 100.035156 70.035156 100.8125 71.839844 C 101.589844 73.644531 102.636719 75.21875 103.964844 76.554688 C 105.289062 77.894531 106.855469 78.960938 108.660156 79.75 C 110.464844 80.539062 112.410156 80.933594 114.496094 80.933594 C 116.554688 80.933594 118.484375 80.539062 120.292969 79.75 C 122.09375 78.960938 123.667969 77.886719 125.007812 76.535156 C 126.347656 75.179688 127.402344 73.609375 128.179688 71.820312 C 128.953125 70.027344 129.34375 68.117188 129.34375 66.085938 C 129.34375 64.058594 128.953125 62.148438 128.179688 60.355469 C 127.402344 58.566406 126.347656 56.992188 125.007812 55.640625 C 123.667969 54.285156 122.09375 53.214844 120.292969 52.425781 C 118.484375 51.636719 116.554688 51.242188 114.496094 51.242188 Z M 138.183594 66.085938 C 138.183594 72.6875 135.871094 78.269531 131.246094 82.835938 C 126.566406 87.460938 120.980469 89.773438 114.496094 89.773438 C 107.953125 89.773438 102.371094 87.460938 97.746094 82.835938 C 93.121094 78.214844 90.808594 72.628906 90.808594 66.085938 C 90.808594 59.546875 93.121094 53.960938 97.746094 49.335938 C 102.371094 44.714844 107.953125 42.402344 114.496094 42.402344 C 120.980469 42.402344 126.566406 44.714844 131.246094 49.335938 C 133.558594 51.648438 135.285156 54.203125 136.425781 56.992188 C 137.570312 59.785156 138.152344 62.816406 138.183594 66.085938 " fill-opacity="1" fill-rule="nonzero"/><g clip-path="url(#b4751d3734)"><path fill="#ffffff" d="M 26.007812 22.140625 C 27.277344 22.140625 28.328125 22.570312 29.160156 23.429688 C 29.992188 24.289062 30.410156 25.339844 30.410156 26.582031 C 30.410156 27.851562 29.992188 28.902344 29.160156 29.734375 C 28.328125 30.566406 27.277344 30.980469 26.007812 30.980469 C 22.511719 30.980469 20.765625 32.730469 20.765625 36.226562 L 20.765625 56.441406 C 20.765625 60.503906 19.832031 63.71875 17.972656 66.085938 C 19.832031 68.457031 20.765625 71.671875 20.765625 75.730469 L 20.765625 95.949219 C 20.765625 99.445312 22.511719 101.195312 26.007812 101.195312 C 27.277344 101.195312 28.328125 101.609375 29.160156 102.441406 C 29.992188 103.273438 30.410156 104.324219 30.410156 105.59375 C 30.410156 106.863281 29.992188 107.921875 29.160156 108.765625 C 28.328125 109.613281 27.277344 110.035156 26.007812 110.035156 C 16.621094 110.035156 11.925781 105.339844 11.925781 95.949219 L 11.925781 75.730469 C 11.925781 72.234375 10.191406 70.484375 6.722656 70.484375 C 5.453125 70.484375 4.402344 70.070312 3.570312 69.238281 C 2.738281 68.40625 2.324219 67.355469 2.324219 66.085938 C 2.324219 64.820312 2.738281 63.769531 3.570312 62.9375 C 4.402344 62.105469 5.453125 61.6875 6.722656 61.6875 C 10.191406 61.6875 11.925781 59.941406 11.925781 56.441406 L 11.925781 36.226562 C 11.925781 26.835938 16.621094 22.140625 26.007812 22.140625 " fill-opacity="1" fill-rule="nonzero"/></g><g clip-path="url(#1b4528cbee)"><path fill="#ffffff" d="M 162.925781 36.226562 L 162.925781 56.441406 C 162.925781 59.941406 164.660156 61.6875 168.128906 61.6875 C 169.398438 61.6875 170.449219 62.105469 171.28125 62.9375 C 172.113281 63.769531 172.527344 64.820312 172.527344 66.085938 C 172.527344 67.355469 172.113281 68.40625 171.28125 69.238281 C 170.449219 70.070312 169.398438 70.484375 168.128906 70.484375 C 164.660156 70.484375 162.925781 72.234375 162.925781 75.730469 L 162.925781 95.949219 C 162.925781 105.339844 158.230469 110.035156 148.839844 110.035156 C 147.570312 110.035156 146.523438 109.613281 145.691406 108.765625 C 144.859375 107.921875 144.445312 106.863281 144.445312 105.59375 C 144.445312 104.324219 144.859375 103.273438 145.691406 102.441406 C 146.523438 101.609375 147.570312 101.195312 148.839844 101.195312 C 152.339844 101.195312 154.085938 99.445312 154.085938 95.949219 L 154.085938 75.730469 C 154.085938 71.671875 155.015625 68.457031 156.878906 66.085938 C 155.015625 63.71875 154.085938 60.503906 154.085938 56.441406 L 154.085938 36.226562 C 154.085938 32.730469 152.339844 30.980469 148.839844 30.980469 C 147.570312 30.980469 146.523438 30.566406 145.691406 29.734375 C 144.859375 28.902344 144.445312 27.851562 144.445312 26.582031 C 144.445312 25.339844 144.859375 24.289062 145.691406 23.429688 C 146.523438 22.570312 147.570312 22.140625 148.839844 22.140625 C 158.230469 22.140625 162.925781 26.835938 162.925781 36.226562 " fill-opacity="1" fill-rule="nonzero"/></g><g clip-path="url(#eb18ded459)"><path fill="#ffffff" d="M 100.664062 25.648438 C 100.664062 26.378906 100.523438 27.0625 100.242188 27.699219 C 99.960938 28.332031 99.585938 28.890625 99.121094 29.371094 C 98.65625 29.847656 98.097656 30.222656 97.449219 30.488281 C 96.800781 30.757812 96.125 30.890625 95.421875 30.890625 C 94.121094 30.890625 93.007812 30.441406 92.078125 29.539062 C 91.148438 28.636719 90.386719 27.53125 89.792969 26.21875 C 89.203125 24.90625 88.773438 23.554688 88.503906 22.15625 C 88.234375 20.761719 88.101562 19.457031 88.101562 18.246094 C 88.101562 13.253906 90.230469 8.207031 94.488281 3.101562 C 95.25 2.339844 96.109375 1.960938 97.070312 1.960938 C 98.054688 1.960938 98.902344 2.3125 99.605469 3.019531 C 100.3125 3.722656 100.664062 4.570312 100.664062 5.554688 C 100.664062 6.035156 100.566406 6.527344 100.371094 7.035156 C 99.097656 10.136719 98.464844 13.085938 98.464844 15.875 C 98.464844 18.527344 99.042969 21.09375 100.199219 23.574219 C 100.511719 24.28125 100.664062 24.96875 100.664062 25.648438 Z M 86.75 25.648438 C 86.75 26.378906 86.609375 27.0625 86.328125 27.699219 C 86.042969 28.332031 85.671875 28.890625 85.203125 29.371094 C 84.738281 29.847656 84.183594 30.222656 83.535156 30.488281 C 82.886719 30.757812 82.207031 30.890625 81.503906 30.890625 C 80.207031 30.890625 79.09375 30.441406 78.164062 29.539062 C 77.230469 28.636719 76.472656 27.53125 75.878906 26.21875 C 75.285156 24.90625 74.855469 23.554688 74.589844 22.15625 C 74.320312 20.761719 74.1875 19.457031 74.1875 18.246094 C 74.1875 13.253906 76.316406 8.207031 80.574219 3.101562 C 81.335938 2.339844 82.195312 1.960938 83.152344 1.960938 C 84.140625 1.960938 84.984375 2.3125 85.691406 3.019531 C 86.394531 3.722656 86.75 4.570312 86.75 5.554688 C 86.75 6.035156 86.648438 6.527344 86.453125 7.035156 C 85.183594 10.136719 84.550781 13.085938 84.550781 15.875 C 84.550781 18.527344 85.128906 21.09375 86.285156 23.574219 C 86.59375 24.28125 86.75 24.96875 86.75 25.648438 " fill-opacity="1" fill-rule="nonzero"/></g><g fill="#c9f31d" fill-opacity="1"><g transform="translate(290.971307, 51.702999)"><g><path d="M 2.515625 -33.875 L 11.078125 -33.875 C 14.003906 -33.875 16.289062 -33.507812 17.9375 -32.78125 C 19.582031 -32.0625 20.75 -30.925781 21.4375 -29.375 C 22.125 -27.832031 22.46875 -25.765625 22.46875 -23.171875 L 22.46875 -10.875 C 22.46875 -8.25 22.125 -6.15625 21.4375 -4.59375 C 20.75 -3.039062 19.585938 -1.882812 17.953125 -1.125 C 16.328125 -0.375 14.066406 0 11.171875 0 L 2.515625 0 Z M 11.171875 -5.1875 C 12.253906 -5.1875 13.050781 -5.347656 13.5625 -5.671875 C 14.082031 -5.992188 14.410156 -6.453125 14.546875 -7.046875 C 14.691406 -7.648438 14.765625 -8.535156 14.765625 -9.703125 L 14.765625 -24.46875 C 14.765625 -25.550781 14.6875 -26.378906 14.53125 -26.953125 C 14.382812 -27.523438 14.050781 -27.953125 13.53125 -28.234375 C 13.007812 -28.515625 12.207031 -28.65625 11.125 -28.65625 L 10 -28.65625 L 10 -5.1875 Z M 11.171875 -5.1875 "/></g></g></g><g fill="#c9f31d" fill-opacity="1"><g transform="translate(315.479234, 51.702999)"><g><path d="M 2.515625 -33.875 L 17.734375 -33.875 L 17.734375 -28.78125 L 10 -28.78125 L 10 -20.375 L 15.890625 -20.375 L 15.890625 -15.1875 L 10 -15.1875 L 10 -5.0625 L 17.8125 -5.0625 L 17.8125 0 L 2.515625 0 Z M 2.515625 -33.875 "/></g></g></g><g fill="#c9f31d" fill-opacity="1"><g transform="translate(334.173854, 51.702999)"><g><path d="M 0.921875 -33.875 L 7.3125 -33.875 L 10.953125 -10.875 L 14.34375 -33.875 L 21.125 -33.875 L 14.9375 0 L 7.03125 0 Z M 0.921875 -33.875 "/></g></g></g><g fill="#ffffff" fill-opacity="1"><g transform="translate(185.530563, 98.67144)"><g><path d="M 9.71875 -33.703125 C 12.382812 -33.703125 14.367188 -32.992188 15.671875 -31.578125 C 16.972656 -30.171875 17.625 -28.101562 17.625 -25.375 L 17.625 -20.984375 C 17.625 -18.253906 16.972656 -16.179688 15.671875 -14.765625 C 14.367188 -13.359375 12.382812 -12.65625 9.71875 -12.65625 L 7.21875 -12.65625 L 7.21875 0 L 1.921875 0 L 1.921875 -33.703125 Z M 7.21875 -28.890625 L 7.21875 -17.46875 L 9.71875 -17.46875 C 10.550781 -17.46875 11.191406 -17.691406 11.640625 -18.140625 C 12.097656 -18.597656 12.328125 -19.4375 12.328125 -20.65625 L 12.328125 -25.703125 C 12.328125 -26.921875 12.097656 -27.753906 11.640625 -28.203125 C 11.191406 -28.660156 10.550781 -28.890625 9.71875 -28.890625 Z M 7.21875 -28.890625 "/></g></g></g><g fill="#ffffff" fill-opacity="1"><g transform="translate(212.102748, 98.67144)"><g><path d="M 19.0625 0 L 13.71875 0 L 12.8125 -6.109375 L 6.3125 -6.109375 L 5.390625 0 L 0.53125 0 L 5.921875 -33.703125 L 13.671875 -33.703125 Z M 6.984375 -10.6875 L 12.078125 -10.6875 L 9.53125 -27.734375 Z M 6.984375 -10.6875 "/></g></g></g><g fill="#ffffff" fill-opacity="1"><g transform="translate(240.119065, 98.67144)"><g><path d="M 1.921875 -33.703125 L 7.21875 -33.703125 L 7.21875 -4.8125 L 15.9375 -4.8125 L 15.9375 0 L 1.921875 0 Z M 1.921875 -33.703125 "/></g></g></g><g fill="#ffffff" fill-opacity="1"><g transform="translate(264.862017, 98.67144)"><g><path d="M 1.921875 -33.703125 L 7.21875 -33.703125 L 7.21875 -4.8125 L 15.9375 -4.8125 L 15.9375 0 L 1.921875 0 Z M 1.921875 -33.703125 "/></g></g></g><g fill="#ffffff" fill-opacity="1"><g transform="translate(289.604975, 98.67144)"><g><path d="M 7.21875 -19.5 L 14.484375 -19.5 L 14.484375 -14.6875 L 7.21875 -14.6875 L 7.21875 -4.8125 L 16.375 -4.8125 L 16.375 0 L 1.921875 0 L 1.921875 -33.703125 L 16.375 -33.703125 L 16.375 -28.890625 L 7.21875 -28.890625 Z M 7.21875 -19.5 "/></g></g></g><g fill="#ffffff" fill-opacity="1"><g transform="translate(315.743927, 98.67144)"><g><path d="M 13 0 C 12.9375 -0.226562 12.867188 -0.4375 12.796875 -0.625 C 12.734375 -0.820312 12.675781 -1.0625 12.625 -1.34375 C 12.582031 -1.632812 12.550781 -2.003906 12.53125 -2.453125 C 12.519531 -2.898438 12.515625 -3.460938 12.515625 -4.140625 L 12.515625 -9.4375 C 12.515625 -11.007812 12.238281 -12.113281 11.6875 -12.75 C 11.144531 -13.394531 10.265625 -13.71875 9.046875 -13.71875 L 7.21875 -13.71875 L 7.21875 0 L 1.921875 0 L 1.921875 -33.703125 L 9.921875 -33.703125 C 12.679688 -33.703125 14.675781 -33.054688 15.90625 -31.765625 C 17.144531 -30.484375 17.765625 -28.546875 17.765625 -25.953125 L 17.765625 -23.296875 C 17.765625 -19.828125 16.609375 -17.550781 14.296875 -16.46875 C 15.640625 -15.914062 16.5625 -15.019531 17.0625 -13.78125 C 17.5625 -12.550781 17.8125 -11.054688 17.8125 -9.296875 L 17.8125 -4.09375 C 17.8125 -3.257812 17.84375 -2.53125 17.90625 -1.90625 C 17.96875 -1.28125 18.128906 -0.644531 18.390625 0 Z M 7.21875 -28.890625 L 7.21875 -18.53125 L 9.296875 -18.53125 C 10.285156 -18.53125 11.0625 -18.785156 11.625 -19.296875 C 12.1875 -19.816406 12.46875 -20.75 12.46875 -22.09375 L 12.46875 -25.421875 C 12.46875 -26.640625 12.25 -27.519531 11.8125 -28.0625 C 11.382812 -28.613281 10.703125 -28.890625 9.765625 -28.890625 Z M 7.21875 -28.890625 "/></g></g></g><g fill="#ffffff" fill-opacity="1"><g transform="translate(343.51956, 98.67144)"><g><path d="M 6.78125 -7.75 C 6.78125 -6.53125 7.03125 -5.671875 7.53125 -5.171875 C 8.03125 -4.671875 8.695312 -4.421875 9.53125 -4.421875 C 10.363281 -4.421875 11.03125 -4.671875 11.53125 -5.171875 C 12.03125 -5.671875 12.28125 -6.53125 12.28125 -7.75 L 12.28125 -25.953125 C 12.28125 -27.171875 12.03125 -28.023438 11.53125 -28.515625 C 11.03125 -29.015625 10.363281 -29.265625 9.53125 -29.265625 C 8.695312 -29.265625 8.03125 -29.015625 7.53125 -28.515625 C 7.03125 -28.023438 6.78125 -27.171875 6.78125 -25.953125 Z M 1.5 -25.609375 C 1.5 -28.335938 2.1875 -30.429688 3.5625 -31.890625 C 4.9375 -33.347656 6.925781 -34.078125 9.53125 -34.078125 C 12.132812 -34.078125 14.125 -33.347656 15.5 -31.890625 C 16.882812 -30.429688 17.578125 -28.335938 17.578125 -25.609375 L 17.578125 -8.09375 C 17.578125 -5.363281 16.882812 -3.265625 15.5 -1.796875 C 14.125 -0.335938 12.132812 0.390625 9.53125 0.390625 C 6.925781 0.390625 4.9375 -0.335938 3.5625 -1.796875 C 2.1875 -3.265625 1.5 -5.363281 1.5 -8.09375 Z M 1.5 -25.609375 "/></g></g></g><g fill="#ffffff" fill-opacity="1"><g transform="translate(187.460441, 51.108114)"><g><path d="M 0.484375 -4.8125 C 0.773438 -4.78125 1.078125 -4.765625 1.390625 -4.765625 C 1.710938 -4.765625 2.019531 -4.765625 2.3125 -4.765625 C 3.144531 -4.765625 3.859375 -4.972656 4.453125 -5.390625 C 5.046875 -5.804688 5.34375 -6.671875 5.34375 -7.984375 L 5.34375 -33.703125 L 10.640625 -33.703125 L 10.640625 -8.375 C 10.640625 -6.675781 10.429688 -5.28125 10.015625 -4.1875 C 9.597656 -3.09375 9.035156 -2.234375 8.328125 -1.609375 C 7.617188 -0.984375 6.804688 -0.539062 5.890625 -0.28125 C 4.984375 -0.03125 4.03125 0.09375 3.03125 0.09375 C 2.550781 0.09375 2.117188 0.09375 1.734375 0.09375 C 1.347656 0.09375 0.929688 0.0625 0.484375 0 Z M 0.484375 -4.8125 "/></g></g></g><g fill="#ffffff" fill-opacity="1"><g transform="translate(208.207962, 51.108114)"><g><path d="M 6.78125 -7.75 C 6.78125 -6.53125 7.03125 -5.671875 7.53125 -5.171875 C 8.03125 -4.671875 8.695312 -4.421875 9.53125 -4.421875 C 10.363281 -4.421875 11.03125 -4.671875 11.53125 -5.171875 C 12.03125 -5.671875 12.28125 -6.53125 12.28125 -7.75 L 12.28125 -25.953125 C 12.28125 -27.171875 12.03125 -28.023438 11.53125 -28.515625 C 11.03125 -29.015625 10.363281 -29.265625 9.53125 -29.265625 C 8.695312 -29.265625 8.03125 -29.015625 7.53125 -28.515625 C 7.03125 -28.023438 6.78125 -27.171875 6.78125 -25.953125 Z M 1.5 -25.609375 C 1.5 -28.335938 2.1875 -30.429688 3.5625 -31.890625 C 4.9375 -33.347656 6.925781 -34.078125 9.53125 -34.078125 C 12.132812 -34.078125 14.125 -33.347656 15.5 -31.890625 C 16.882812 -30.429688 17.578125 -28.335938 17.578125 -25.609375 L 17.578125 -8.09375 C 17.578125 -5.363281 16.882812 -3.265625 15.5 -1.796875 C 14.125 -0.335938 12.132812 0.390625 9.53125 0.390625 C 6.925781 0.390625 4.9375 -0.335938 3.5625 -1.796875 C 2.1875 -3.265625 1.5 -5.363281 1.5 -8.09375 Z M 1.5 -25.609375 "/></g></g></g><g fill="#ffffff" fill-opacity="1"><g transform="translate(235.694757, 51.108114)"><g><path d="M 7.21875 -19.5 L 14.484375 -19.5 L 14.484375 -14.6875 L 7.21875 -14.6875 L 7.21875 -4.8125 L 16.375 -4.8125 L 16.375 0 L 1.921875 0 L 1.921875 -33.703125 L 16.375 -33.703125 L 16.375 -28.890625 L 7.21875 -28.890625 Z M 7.21875 -19.5 "/></g></g></g><g fill="#ffffff" fill-opacity="1"><g transform="translate(261.833703, 51.108114)"><g><path d="M 1.921875 -33.703125 L 7.21875 -33.703125 L 7.21875 -4.8125 L 15.9375 -4.8125 L 15.9375 0 L 1.921875 0 Z M 1.921875 -33.703125 "/></g></g></g></svg>