<svg height="512" viewBox="0 0 24 24" width="512" xmlns="http://www.w3.org/2000/svg"><g id="Layer_3" data-name="Layer 3"><path d="m12 1a11 11 0 1 1 -11 11 11.0125 11.0125 0 0 1 11-11m0-1a12 12 0 1 0 12 12 12 12 0 0 0 -12-12z"/></g><g id="Layer_4" data-name="Layer 4"><path d="m5 15.96v2.08a1.4682 1.4682 0 0 0 1.46 1.46h11.08a1.4682 1.4682 0 0 0 1.46-1.46v-2.08a1.4682 1.4682 0 0 0 -1.46-1.46h-2.18l1.14-1.16a.997.997 0 0 0 .21-1.1.9774.9774 0 0 0 -.92-.62h-1.29v-6.11a1.0051 1.0051 0 0 0 -1-1.01h-3a1.0051 1.0051 0 0 0 -1 1.01v6.11h-1.29a.9774.9774 0 0 0 -.92.62.997.997 0 0 0 .21 1.1l1.14 1.16h-2.18a1.4682 1.4682 0 0 0 -1.46 1.46zm3.21-3.34h1.79a.4951.4951 0 0 0 .5-.5v-6.62h3v6.62a.4951.4951 0 0 0 .5.5l1.79.02-1.83 1.86-.98 1-.98 1-.98-1-.97-1zm1.41 2.88 1.67 1.7a.99.99 0 0 0 1.42 0l1.67-1.7h3.16a.4653.4653 0 0 1 .46.46v2.08a.4653.4653 0 0 1 -.46.46h-11.08a.4653.4653 0 0 1 -.46-.46v-2.08a.4653.4653 0 0 1 .46-.46z"/></g></svg>