<svg height="300" viewBox="0 0 24 24" width="300" xmlns="http://www.w3.org/2000/svg" xmlns:sketch="http://www.bohemiancoding.com/sketch/ns" version="1.1" xmlns:xlink="http://www.w3.org/1999/xlink" xmlns:svgjs="http://svgjs.dev/svgjs"><g width="100%" height="100%" transform="matrix(1.08,0,0,1.08,-0.9600000000000009,-0.9600000000000009)"><g id="miu" fill="none" fill-rule="evenodd"><g id="Artboard-1" transform="translate(-863 -659)"><g id="slice" transform="translate(215 119)"/><path id="circle-social-linkedin-outline-stroke" d="m875 682c6.075133 0 11-4.924867 11-11s-4.924867-11-11-11-11 4.924867-11 11 4.924867 11 11 11zm0-1c5.522848 0 10-4.477152 10-10s-4.477152-10-10-10-10 4.477152-10 10 4.477152 10 10 10zm6-6h-2.43115v-3.5154c0-.920151-.380292-1.548313-1.216545-1.548313-.63964 0-.995355.423897-1.160924.832427-.062089.146635-.052388.350899-.052388.555164v3.676122h-2.408513s.031044-6.227188 0-6.793238h2.408513v1.066146c.142286-.466159.911924-1.13146 2.140111-1.13146 1.523753 0 2.720896.977141 2.720896 3.081258zm-9.705198-7.642953h-.015522c-.776105 0-1.27928-.519306-1.27928-1.177563 0-.671064.51805-1.179484 1.309678-1.179484.790981 0 1.27734.50714 1.292862 1.177563 0 .658257-.501881 1.179484-1.307738 1.179484zm-1.017344.849715h2.143991v6.793238h-2.143991z" fill="#000000" fill-opacity="1" data-original-color="#000000ff" stroke="none" stroke-opacity="1"/></g></g></g></svg>